<svg width="29" height="29" viewBox="0 0 29 29" fill="none" xmlns="http://www.w3.org/2000/svg">
  <path
    d="M11.7041 24.3084H9.00313C8.76435 24.3084 8.53535 24.2136 8.36651 24.0447C8.19767 23.8759 8.10281 23.6469 8.10281 23.4081V5.40187C8.10281 5.16309 8.19767 4.93409 8.36651 4.76525C8.53535 4.59641 8.76435 4.50156 9.00313 4.50156H11.7041C11.9428 4.50156 12.1718 4.59641 12.3407 4.76525C12.5095 4.93409 12.6044 5.16309 12.6044 5.40187V23.4081C12.6044 23.6469 12.5095 23.8759 12.3407 24.0447C12.1718 24.2136 11.9428 24.3084 11.7041 24.3084Z"
    fill="#E1E1E6" />
  <path
    d="M19.8069 24.3084H17.1059C16.8672 24.3084 16.6382 24.2136 16.4693 24.0447C16.3005 23.8759 16.2056 23.6469 16.2056 23.4081V5.40187C16.2056 5.16309 16.3005 4.93409 16.4693 4.76525C16.6382 4.59641 16.8672 4.50156 17.1059 4.50156H19.8069C20.0457 4.50156 20.2747 4.59641 20.4435 4.76525C20.6123 4.93409 20.7072 5.16309 20.7072 5.40187V23.4081C20.7072 23.6469 20.6123 23.8759 20.4435 24.0447C20.2747 24.2136 20.0457 24.3084 19.8069 24.3084Z"
    fill="#E1E1E6" />
</svg>
  